<svg width="25" height="24" viewBox="0 0 25 24" fill="none" xmlns="http://www.w3.org/2000/svg">
<path d="M17.5 4H16.32C16.1137 3.41645 15.7319 2.911 15.2271 2.55294C14.7222 2.19488 14.1189 2.00174 13.5 2H11.5C10.8811 2.00174 10.2778 2.19488 9.77293 2.55294C9.26807 2.911 8.88631 3.41645 8.68 4H7.5C6.70435 4 5.94129 4.31607 5.37868 4.87868C4.81607 5.44129 4.5 6.20435 4.5 7V19C4.5 19.7956 4.81607 20.5587 5.37868 21.1213C5.94129 21.6839 6.70435 22 7.5 22H17.5C18.2956 22 19.0587 21.6839 19.6213 21.1213C20.1839 20.5587 20.5 19.7956 20.5 19V7C20.5 6.20435 20.1839 5.44129 19.6213 4.87868C19.0587 4.31607 18.2956 4 17.5 4ZM10.5 5C10.5 4.73478 10.6054 4.48043 10.7929 4.29289C10.9804 4.10536 11.2348 4 11.5 4H13.5C13.7652 4 14.0196 4.10536 14.2071 4.29289C14.3946 4.48043 14.5 4.73478 14.5 5V6H10.5V5ZM18.5 19C18.5 19.2652 18.3946 19.5196 18.2071 19.7071C18.0196 19.8946 17.7652 20 17.5 20H7.5C7.23478 20 6.98043 19.8946 6.79289 19.7071C6.60536 19.5196 6.5 19.2652 6.5 19V7C6.5 6.73478 6.60536 6.48043 6.79289 6.29289C6.98043 6.10536 7.23478 6 7.5 6H8.5V7C8.5 7.26522 8.60536 7.51957 8.79289 7.70711C8.98043 7.89464 9.23478 8 9.5 8H15.5C15.7652 8 16.0196 7.89464 16.2071 7.70711C16.3946 7.51957 16.5 7.26522 16.5 7V6H17.5C17.7652 6 18.0196 6.10536 18.2071 6.29289C18.3946 6.48043 18.5 6.73478 18.5 7V19Z" fill="#838795"/>
</svg>
